<svg width="168" height="88" viewBox="0 0 168 88" fill="none" xmlns="http://www.w3.org/2000/svg">
<path d="M73.4286 1.07136C73.2106 1.65269 73.2833 3.17869 73.6466 4.55936L74.228 7.03003L74.3006 3.90536C74.3733 0.998693 74.446 0.85336 76.3353 1.14403C78.2973 1.50736 79.46 2.67003 79.46 4.26869C79.46 4.77736 79.9686 5.21336 80.55 5.21336C81.4946 5.21336 81.5673 5.50403 80.768 6.81203C80.1866 7.97469 79.9686 11.7534 80.0413 19.02C80.114 24.8334 79.896 29.1207 79.6053 28.612C79.242 28.0307 78.9513 28.9754 78.9513 31.01C78.9513 32.8267 78.588 34.716 78.152 35.152C77.498 35.806 77.28 35.806 77.28 35.152C77.28 34.6434 76.844 34.28 76.408 34.28C75.8993 34.3527 76.2626 35.0067 77.2073 35.7334C78.152 36.5327 78.6606 37.1867 78.2973 37.1867C78.0066 37.1867 78.0793 37.55 78.588 38.0587C79.0966 38.5674 79.46 39.4394 79.46 40.0207C79.3873 40.7474 78.4426 40.0934 76.9166 38.3494C75.536 36.7507 74.3733 35.806 74.3733 36.0967C74.3733 36.46 75.1 37.55 76.0446 38.5674L77.6433 40.4567L75.754 38.7854C74.7366 37.9134 73.6466 37.1867 73.2833 37.1867C72.92 37.1867 71.394 35.9514 69.868 34.498C68.342 33.0447 67.1066 32.1727 67.1066 32.6087C67.1066 33.0447 66.598 33.626 65.944 33.844C65.3626 34.062 65.072 33.9894 65.29 33.5534C65.508 33.19 64.854 32.6814 63.8366 32.3907C62.892 32.1727 62.238 31.664 62.456 31.3007C62.674 30.9374 62.238 30.8647 61.584 31.1554C60.712 31.446 60.494 31.3734 60.8573 30.792C61.2206 30.2107 61.0026 30.0654 60.276 30.356C58.6046 31.01 58.8226 31.228 61.802 32.4634C63.2553 33.0447 64.2726 33.6987 64.1273 33.844C63.2553 34.6434 51.1926 34.716 48.94 33.844C46.4693 32.972 46.4693 32.972 51.4106 32.8994C54.172 32.8267 56.2793 32.6087 55.9886 32.3907C55.7706 32.1727 53.082 31.9547 50.03 32.0274C44.7253 32.1 44.5073 32.0274 43.7806 30.138C43.4173 29.1207 43.3446 28.0307 43.6353 27.8127C43.9986 27.5947 44.6526 26.5047 45.1613 25.342C45.888 23.6707 46.324 23.38 47.9953 23.816C49.594 24.1067 49.812 24.034 48.94 23.4527C48.068 22.7987 48.2133 22.6534 49.8846 22.6534C50.9746 22.6534 51.8466 22.2174 51.8466 21.7087C51.8466 21.0547 52.864 20.764 54.9713 20.8367C57.8053 20.8367 58.3866 21.2 63.764 26.65C66.9613 29.8474 68.9233 31.664 68.124 30.6467C67.3973 29.702 64.3453 26.432 61.4386 23.38C58.532 20.4007 55.9886 17.2034 55.7706 16.2587C55.48 15.3867 55.044 14.66 54.7533 14.66C53.8086 14.66 54.39 16.6947 55.8433 18.2934C57.3693 19.9647 56.788 21.1274 54.8986 20.0374C53.3 19.0927 51.12 19.6014 51.12 20.9094C51.12 21.4907 50.466 21.9267 49.6666 21.9267C47.0506 21.9267 44.798 23.5254 43.5626 26.3594C42.4726 28.7574 42.4726 29.484 43.272 31.1554C44.7253 34.3527 49.9573 35.806 57.7326 35.2247C64.9993 34.716 67.6153 35.4427 74.01 39.4394C80.1866 43.2907 82.948 48.668 84.038 58.7687C84.1106 59.568 84.474 60.1494 84.8373 59.9314C85.2006 59.6407 85.2733 60.3674 84.9826 61.4574C84.6193 62.9107 84.692 63.3467 85.346 62.9107C86 62.5474 86.0726 62.838 85.782 64.0007C85.2733 66.0354 85.8546 67.852 86.872 67.2707C87.308 66.98 87.3806 67.416 87.09 68.4334C86.7266 69.6687 86.7993 69.9594 87.526 69.5234C88.18 69.0874 88.3253 69.2327 87.962 70.1047C87.744 70.7587 87.8166 71.4854 88.2526 71.7034C89.488 72.5027 89.8513 69.7414 88.7613 67.7794C87.526 65.672 84.5466 54.554 84.5466 52.0107C84.5466 49.4674 81.0586 41.3287 80.2593 41.91C79.5326 42.346 80.114 31.3007 80.986 28.6847C81.422 27.3767 81.5673 25.996 81.3493 25.6327C80.6953 24.6154 80.6226 9.21003 81.204 8.19269C81.64 7.53869 82.076 7.68403 82.8753 8.84669C83.7473 10.1547 84.1106 10.2274 85.128 9.42803C86.0726 8.62869 86.1453 8.62869 85.6366 9.50069C85.2733 10.1547 85.346 10.3727 85.8546 10.0094C86.872 9.42803 89.6333 11.6807 89.6333 13.134C89.6333 13.7154 88.398 15.8227 86.7993 17.8574C85.2733 19.892 83.602 22.2174 83.166 23.0167C82.3666 24.252 82.3666 24.1067 82.8026 21.9267C83.0933 20.546 83.3113 18.0754 83.3113 16.5494C83.2386 14.442 83.384 14.006 83.9653 14.7327C84.474 15.4594 84.6193 15.532 84.4013 14.8054C83.9653 13.2067 82.73 14.1514 82.6573 16.1134C82.5846 17.1307 82.294 19.0927 82.0033 20.6187C81.0586 25.6327 81.7853 26.2867 84.4013 22.508C85.6366 20.6914 87.1626 18.6567 87.6713 18.148C89.1246 16.7674 90.36 14.224 90.36 12.7707C90.36 11.0267 86.9446 8.12003 84.8373 8.12003C83.82 8.12003 82.8753 7.61136 82.5846 6.81203C82.294 6.15803 81.1313 4.34136 79.896 2.81536C77.6433 -0.0186401 74.228 -0.89064 73.4286 1.07136Z" fill="white"/>
<path d="M64.0546 1.36196C63.3279 1.50729 62.7466 1.94329 62.7466 2.30663C62.7466 2.66996 63.8366 2.5973 65.0719 2.23396C68.4146 1.28929 68.3419 1.28929 68.9232 4.26863C69.1412 5.72196 69.6499 6.59396 69.9406 6.0853C70.4492 5.2133 71.4666 7.32063 72.7019 11.7533L73.4286 14.2966L73.3559 11.0266C73.2832 8.99196 72.8472 7.32063 72.0479 6.5213C71.3212 5.79463 70.7399 4.63196 70.7399 3.9053C70.7399 1.28929 68.1239 0.271961 64.0546 1.36196Z" fill="white"/>
<path d="M77.1347 3.90526C77.1347 4.84993 77.062 7.53859 77.1347 9.93659C77.1347 13.7153 77.062 13.9333 76.5534 11.7533C75.972 9.35526 75.972 9.35526 76.1174 12.6253C76.1174 14.5873 76.4807 16.0406 76.9167 15.8953C77.5707 15.6773 78.2247 2.30659 77.5707 2.30659C77.4254 2.30659 77.2074 3.03326 77.1347 3.90526Z" fill="white"/>
<path d="M61.4388 4.63198C60.2761 5.79465 60.3488 7.39332 61.7294 9.57332C62.7468 11.2447 62.6741 10.518 61.5114 7.61132C61.2208 6.81198 61.2934 6.59398 61.8748 6.95732C62.4561 7.32065 62.6014 7.02998 62.2381 6.23065C61.8748 5.21332 62.0201 5.06798 63.1101 5.43132C64.2001 5.86732 64.2728 5.79465 63.4734 4.84998C62.3834 3.54198 62.5288 3.54198 61.4388 4.63198Z" fill="white"/>
<path d="M56.9334 10.1547C53.7361 14.006 53.5907 14.224 54.8261 13.788C55.4801 13.4973 56.4974 13.7153 57.0061 14.1513C57.7327 14.878 57.7327 14.7327 57.0061 13.7153C55.6981 12.044 56.4974 11.2447 58.0961 12.5527C59.2587 13.4973 59.2587 13.4247 58.4594 11.8987C57.2241 9.57333 59.2587 9.71866 60.7847 12.044C62.0927 14.006 65.6534 18.0027 65.6534 17.4213C65.6534 16.4767 62.8194 11.5353 62.7467 12.48C62.7467 13.134 62.0201 12.6253 60.8574 11.172C58.7501 8.48333 58.3867 8.41066 56.9334 10.1547Z" fill="white"/>
<path d="M59.6948 15.532C60.0581 17.058 59.9855 17.1306 58.7501 16.1133C57.5875 15.1686 57.5875 15.314 58.8955 17.2033C59.7675 18.366 61.5115 20.546 62.7468 21.9266C64.0548 23.3073 64.7088 23.9613 64.2728 23.3073C63.7641 22.5806 63.3281 21.4906 63.1828 20.6913C62.8921 19.3833 59.9128 13.9333 59.4768 13.9333C59.3315 13.9333 59.4041 14.66 59.6948 15.532Z" fill="white"/>
<path d="M72.1934 15.314C72.1934 15.6773 72.702 16.4766 73.2834 17.1306C73.9374 17.712 74.1554 18.7293 73.8647 19.456C73.5014 20.4006 73.6467 20.546 74.3734 20.11C75.1 19.674 75.1727 19.9646 74.882 21.2726C74.664 22.2173 74.7367 23.5253 75.1 24.1066C75.536 24.7606 75.6814 24.034 75.4634 21.9266C75.2454 18.148 74.5187 16.1133 73.5014 16.1133C73.138 16.1133 73.0654 15.75 73.2834 15.3866C73.5014 14.9506 73.356 14.66 72.9927 14.66C72.5567 14.66 72.1934 14.9506 72.1934 15.314Z" fill="white"/>
<path d="M77.4253 16.9853C76.9166 17.494 76.5533 18.366 76.626 18.9473C76.626 19.8193 76.844 19.674 77.28 18.6567C77.7886 17.5667 77.934 18.0027 77.7886 20.4007C77.716 22.726 77.934 23.6707 78.7333 23.8887C79.46 24.1067 79.5326 24.034 78.9513 23.598C78.4426 23.2347 78.2246 21.7087 78.37 19.5287C78.6606 15.75 78.6606 15.75 77.4253 16.9853Z" fill="white"/>
<path d="M63.4731 18.148C63.4731 18.4387 64.4178 20.2553 65.6531 22.1447C67.6151 25.342 67.7605 25.9233 66.0891 25.6327C65.7985 25.56 66.5251 26.7953 67.8331 28.4667C69.0685 30.0653 70.4491 31.3733 70.8125 31.3733C71.2485 31.3733 71.3938 31.664 71.1758 32.0273C70.9578 32.3907 71.1758 33.0447 71.6845 33.4807C72.4111 34.062 72.7018 33.9893 72.7018 33.0447C72.7018 32.3907 71.4665 30.6467 69.9405 29.1207C68.4871 27.6673 67.3971 26.214 67.6151 25.996C67.9058 25.778 68.4871 25.9233 69.0685 26.432C71.9025 28.7573 70.2311 23.38 66.9611 19.6013C64.9265 17.2033 65.4351 18.7293 67.8331 22.072C69.0685 23.7433 69.8678 25.1967 69.6498 25.4147C69.1411 25.9233 66.4525 22.5807 65.2171 19.892C64.1998 17.6393 63.4731 16.9127 63.4731 18.148Z" fill="white"/>
<path d="M53.4454 23.6706C54.1721 24.1793 54.5354 24.8333 54.2447 25.124C53.9541 25.4146 54.3174 25.4146 55.0441 25.124C55.9887 24.7606 56.2794 24.8333 55.9161 25.4146C55.5527 25.996 55.8434 26.1413 56.6427 25.778C57.4421 25.4873 57.7327 25.56 57.3694 26.1413C57.1514 26.5773 57.2967 27.1586 57.7327 27.4493C58.3141 27.74 58.3867 27.6673 58.0961 27.1586C57.3694 25.996 58.0961 26.0686 60.2034 27.4493C61.2207 28.1033 62.0201 28.4666 62.0201 28.2486C62.0201 27.6673 53.8087 22.6533 52.9367 22.6533C52.5734 22.6533 52.7914 23.162 53.4454 23.6706Z" fill="white"/>
<path d="M104.167 25.56C103.367 26.3593 102.713 27.3766 102.713 27.8126C102.713 28.394 102.423 28.394 101.696 27.8126C100.243 26.5773 96.1005 27.086 95.1558 28.612C94.5745 29.5566 94.7198 30.7193 95.7372 33.3353C97.6992 38.422 98.9345 53.1006 97.9172 58.9866C97.4812 61.6026 96.7545 64.6546 96.2458 65.7446C95.8098 66.9073 95.6645 68.6513 95.8825 69.7413C96.1732 71.0493 96.1005 71.4126 95.5918 70.7586C94.7198 69.4506 92.2492 75.8453 92.9032 77.8073C93.4845 79.7693 89.8512 82.3853 88.8338 80.714C88.4705 80.1326 88.3252 79.2606 88.5432 78.752C89.0518 77.3713 88.1798 77.7346 85.4912 80.1326C81.9305 83.1846 80.5498 82.7486 80.5498 78.4613C80.4772 76.4993 80.7678 75.4093 81.0585 75.918C81.4218 76.4266 81.6398 76.0633 81.6398 74.7553C81.6398 72.1393 80.2592 72.212 79.7505 74.9006C79.3872 76.572 78.8058 77.1533 77.3525 77.3713L75.4632 77.662L77.4978 77.8073C80.0412 77.88 80.0412 79.406 77.3525 81.0046C74.3732 82.7486 73.6465 82.5306 73.6465 79.9873C73.6465 78.6066 73.3558 77.9526 72.8472 78.2433C72.4112 78.534 72.2658 78.8973 72.4838 79.188C73.1378 79.842 70.5218 81.4406 68.7778 81.5133C67.6878 81.5133 67.1065 81.0773 67.1065 80.3506C67.1065 79.5513 66.7432 79.3333 65.9438 79.624C65.0718 79.9146 64.8538 79.7693 65.2172 78.97C65.7985 77.3713 64.9265 77.662 63.0372 79.6966C61.2205 81.7313 58.7498 82.0946 58.1685 80.496C57.6598 79.3333 56.5698 79.3333 54.0992 80.714C52.7185 81.5133 52.2825 81.5133 51.7738 80.714C51.4105 80.1326 51.2652 79.2606 51.4832 78.752C51.9192 77.5166 50.7565 77.662 49.6665 78.97C48.9398 79.842 48.9398 80.06 49.9572 80.06C50.6112 80.06 51.1198 80.3506 51.1198 80.7866C51.1198 81.15 50.5385 81.5133 49.8845 81.5133C48.6492 81.586 48.6492 81.586 49.8845 82.3126C50.8292 82.8213 51.7738 82.7486 53.2998 81.9493C55.8432 80.714 55.8432 80.714 54.3898 84.1293C53.8085 85.5826 53.5178 87.1086 53.7358 87.472C54.3898 88.4893 55.4798 86.6 55.4798 84.3473C55.4798 83.33 55.9885 81.8766 56.6425 81.0773C57.5872 79.9146 57.7325 79.9146 57.3692 80.932C57.0785 81.9493 57.4418 82.24 59.1132 82.24C60.2758 82.24 62.0198 81.8766 63.0372 81.4406C64.4905 80.714 65.0718 80.7866 66.0165 81.804C66.6705 82.458 67.2518 82.9666 67.3245 82.9666C67.3972 82.9666 68.5598 82.676 69.8678 82.24C71.6118 81.804 72.7018 81.804 73.7192 82.458C74.8818 83.1846 75.5358 83.112 77.2798 82.0946C78.5152 81.4406 79.4598 81.15 79.4598 81.5133C79.4598 82.676 83.0205 83.1846 84.1105 82.24C84.9098 81.6586 85.5638 81.586 86.7265 82.24C87.8892 82.894 88.7612 82.8213 90.4325 81.9493C92.3945 81.0046 92.6125 81.0046 92.2492 81.8766C91.5952 83.6206 92.5398 83.112 93.2665 81.2953C93.9205 79.842 93.9205 79.9146 93.7752 81.8766C93.7025 83.0393 93.1938 84.0566 92.7578 84.0566C91.4498 84.0566 91.5225 85.4373 92.7578 85.728C94.0658 86.0186 94.5018 84.9286 95.0105 79.624C95.2285 76.6446 95.1558 75.9906 94.7925 77.5166L94.1385 79.6966L94.0658 77.2986C94.0658 76.0633 94.2838 74.9733 94.6472 74.9733C95.3012 74.9733 96.4638 72.43 97.2632 69.16C97.6265 67.7793 97.5538 67.5613 96.9725 68.4333C95.7372 70.1773 95.9552 67.9973 97.2632 65.5266C98.4985 63.056 100.388 61.8933 102.931 61.8933C104.094 61.8933 104.821 61.3846 105.111 60.44C105.402 59.2046 105.693 59.132 107.582 59.8586C109.907 60.7306 113.613 60.1493 113.613 58.914C113.613 58.478 113.25 58.4053 112.814 58.6233C112.451 58.914 110.997 59.2773 109.762 59.4226C107.509 59.7133 107.509 59.7133 109.108 58.7686C109.98 58.26 110.489 57.5333 110.198 57.17C109.907 56.8793 110.198 56.8066 110.925 57.0246C111.724 57.3153 112.087 57.2426 111.797 56.8066C111.579 56.3706 111.724 56.08 112.087 56.08C112.523 56.08 112.887 56.3706 112.887 56.734C112.887 57.0973 114.195 56.734 115.793 56.0073C117.392 55.208 119.572 54.2633 120.662 53.8273C121.679 53.464 122.333 52.9553 122.115 52.7373C121.897 52.5193 120.444 53.028 118.773 53.8273C115.43 55.5713 112.959 55.862 116.084 54.1906C117.683 53.3186 117.901 52.8826 117.174 52.4466C116.447 51.938 116.738 51.5746 118.191 51.066C120.953 49.976 121.534 50.1213 119.863 51.3566C117.392 53.1733 119.572 52.5193 124.368 49.976C128.655 47.6506 128.873 47.578 128.51 49.0313C128.001 50.63 126.33 52.4466 123.06 54.8446C121.97 55.644 122.479 55.4986 124.368 54.4813C129.019 52.0833 131.199 47.2146 128.147 46.27C127.347 46.052 126.621 45.616 126.548 45.3253C126.33 44.2353 125.967 41.038 125.749 38.4946C125.676 37.0413 124.949 35.152 124.223 34.3526C122.769 32.754 120.88 32.318 120.88 33.5533C120.88 33.9166 121.243 34.28 121.679 34.28C122.624 34.28 125.24 37.0413 125.24 38.0586C125.24 38.9306 120.299 43.9446 118.337 45.1073C116.956 45.9066 117.029 45.9793 118.7 45.5433C120.444 45.1073 120.444 45.1073 119.063 46.27C118.264 46.8513 117.247 47.2146 116.665 46.9966C116.084 46.7786 115.939 46.9966 116.229 47.4326C116.52 47.8686 116.229 48.5226 115.721 48.886C114.049 49.9033 113.395 49.6126 114.413 48.232C115.212 47.2146 115.067 47.2873 113.759 48.3773C112.887 49.1766 112.305 49.9033 112.523 50.1213C112.741 50.3393 112.451 50.9933 111.942 51.5746C111.506 52.2286 112.887 51.4293 115.067 49.9033C120.226 46.3426 121.679 45.1073 121.243 44.4533C120.807 43.7266 124.441 40.4566 125.022 41.1106C125.313 41.4013 124.804 42.2733 123.787 43.0726C122.115 44.3806 122.115 44.4533 123.641 43.7266C125.022 43.0726 125.24 43.1453 125.24 44.3806C125.24 45.18 125.676 46.27 126.257 46.8513C127.202 47.7233 126.984 48.014 124.804 49.104C121.316 50.7026 119.935 50.5573 123.06 48.8133C127.057 46.6333 125.022 47.142 119.79 49.6853C116.811 51.066 115.285 52.156 115.866 52.4466C116.447 52.8826 116.229 53.246 115.139 53.8273C114.267 54.336 113.759 54.99 113.977 55.426C114.558 56.2253 113.613 56.298 112.233 55.426C111.433 54.9173 111.506 54.6266 112.596 53.9726C113.395 53.5366 113.613 53.1733 113.177 53.1733C112.741 53.1733 111.942 53.682 111.433 54.2633C110.925 54.8446 110.779 55.3533 110.997 55.3533C111.288 55.3533 110.634 56.1526 109.544 57.17C108.309 58.26 107.073 58.8413 106.274 58.6233C105.62 58.4053 104.821 58.5506 104.603 58.914C104.167 59.568 100.025 61.8933 99.2978 61.8933C99.1525 61.8933 99.4432 61.1666 99.9518 60.222C100.461 59.35 100.751 58.1873 100.606 57.606C100.533 57.0973 100.751 56.8793 101.115 57.0973C101.841 57.5333 105.838 53.682 105.693 52.6646C105.62 52.374 105.911 52.0833 106.274 52.0833C106.637 52.0833 107.219 51.7926 107.582 51.4293C107.945 51.066 107.727 50.9933 107.146 51.3566C106.492 51.72 106.274 51.5746 106.492 50.9206C106.637 50.3393 107.873 49.322 109.253 48.668C111.07 47.7233 112.087 46.4153 113.177 43.7266C114.049 41.692 116.011 38.7126 117.61 37.0413C120.299 34.2073 120.008 33.844 117.101 36.3146C114.921 38.204 115.648 36.46 118.7 32.6813C120.299 30.6466 121.607 28.5393 121.607 28.0306C121.607 25.7053 114.485 23.598 113.25 25.56C112.959 25.996 112.015 25.8506 110.707 25.1966C107.873 23.7433 105.911 23.816 104.167 25.56ZM111.143 26.7226C111.797 27.522 112.16 27.522 113.395 26.65C114.849 25.6326 115.648 25.6326 118.555 26.5773C120.081 27.086 120.88 30.2106 119.645 30.792C118.7 31.1553 115.067 36.3146 115.212 36.9686C115.503 38.1313 110.343 47.36 109.471 47.36C107.873 47.36 108.454 45.3253 110.852 42.4913C114.921 37.6226 115.43 36.7506 112.378 39.8026C109.181 43 107.8 45.18 107.8 46.9966C107.8 47.6506 106.928 49.322 105.911 50.7026C104.821 52.0833 104.239 53.1733 104.53 53.1733C105.257 53.1733 102.713 55.5713 100.897 56.516C99.3705 57.3153 99.2978 57.2426 99.9518 54.336C100.315 52.6646 100.824 50.412 101.042 49.2493L101.478 47.142L102.423 48.886C102.931 49.8306 103.367 50.2666 103.44 49.8306C103.44 49.322 102.859 48.232 102.132 47.36L100.824 45.7613L100.679 47.796C100.388 51.72 99.8065 50.412 99.8065 45.6886C99.8065 43 99.5158 40.2386 99.1525 39.512C97.8445 37.114 95.7372 31.01 95.8825 30.0653C95.9552 29.6293 96.0278 28.83 96.1005 28.4666C96.1005 28.0306 96.8272 27.74 97.6265 27.74C98.6438 27.74 99.0798 28.2486 99.2252 29.3386C99.3705 32.4633 99.4432 32.754 100.097 33.3353C100.388 33.626 100.461 32.4633 100.243 30.6466C99.8065 27.6673 99.8065 27.522 100.824 28.7573C101.769 29.8473 102.132 29.9926 103.004 29.266C103.658 28.7573 104.312 27.74 104.53 27.0133C105.257 24.7606 109.399 24.5426 111.143 26.7226Z" fill="white"/>
<path d="M104.821 34.3526C103.585 38.6399 103.44 39.5846 104.021 39.0033C104.312 38.7126 104.53 38.2766 104.603 38.0586C104.603 37.7679 105.039 36.2419 105.475 34.7159C105.911 33.1173 106.201 31.6639 105.983 31.5186C105.838 31.3733 105.329 32.6813 104.821 34.3526Z" fill="white"/>
<path d="M110.852 35.9513C109.98 37.2593 109.253 37.768 109.253 37.1866C109.253 36.5326 108.672 36.9686 107.872 38.1313C107.146 39.294 106.346 40.166 106.056 40.166C105.838 40.0933 105.547 40.0933 105.474 40.166C102.858 40.9653 102.495 40.602 102.64 37.55C102.64 36.5326 102.495 36.678 101.914 38.0586C101.332 39.6573 101.405 40.3113 102.277 41.256C103.149 42.0553 103.44 42.128 103.44 41.4013C103.44 40.6746 103.658 40.7473 104.166 41.5466C104.748 42.4186 104.893 42.4186 105.329 41.3286C105.547 40.6746 106.056 40.2386 106.419 40.4566C106.71 40.6746 107.364 40.166 107.8 39.3666C108.236 38.5673 108.89 38.0586 109.253 38.2766C109.834 38.64 113.322 34.4253 112.814 33.9166C112.668 33.7713 111.796 34.716 110.852 35.9513Z" fill="white"/>
<path d="M50.0299 26.1413C52.4279 26.868 54.8259 27.6673 55.3346 28.0306C55.7706 28.3213 56.2066 28.394 56.2066 28.176C56.2066 27.3766 52.0646 25.7053 48.9399 25.2693C45.8879 24.906 46.0332 24.906 50.0299 26.1413Z" fill="white"/>
<path d="M73.3559 25.4873C73.0653 25.9233 72.4839 26.0687 72.0479 25.8507C71.6119 25.56 71.6119 25.996 72.1206 26.9407C72.6293 27.74 73.2833 28.4667 73.6466 28.4667C74.7366 28.4667 75.2453 27.086 74.5186 25.8507C74.0826 24.9787 73.7193 24.906 73.3559 25.4873Z" fill="white"/>
<path d="M51.1198 28.612C52.1371 29.6293 58.3865 31.5913 58.3865 30.8647C58.3865 30.574 54.7531 28.9753 51.8465 28.1033C50.3205 27.5947 50.2478 27.6673 51.1198 28.612Z" fill="white"/>
<path d="M74.0102 30.5013C74.4462 30.7919 74.7369 31.5186 74.7369 32.0999C74.7369 33.4079 77.4255 33.5533 77.7162 32.2453C77.7889 31.7366 77.7162 31.6639 77.4982 32.0999C77.0622 33.0446 75.1002 33.0446 75.1002 32.0999C75.1002 31.6639 75.4635 31.3733 75.8269 31.3733C77.2802 31.3733 76.4809 30.2106 74.9549 30.1379C74.0102 30.0653 73.6469 30.2106 74.0102 30.5013Z" fill="white"/>
<path d="M113.468 70.904C112.741 72.43 112.16 73.8107 112.16 73.956C112.16 74.0287 111.869 74.9733 111.433 75.9907L110.779 77.8073L106.637 76.4267C102.132 74.828 97.9899 74.5373 97.2633 75.7C96.1006 77.5893 102.713 82.9667 106.201 82.9667C107.073 82.9667 108.527 82.1673 109.399 81.15C111.143 79.2607 114.34 79.2607 114.34 81.2227C114.34 81.7313 114.703 82.3853 115.212 82.676C115.793 83.0393 115.866 82.8213 115.575 81.8767C115.139 80.8593 115.357 80.714 116.52 81.0047C117.319 81.2227 117.973 81.0773 117.973 80.714C117.973 80.3507 117.319 80.06 116.52 80.06C115.285 80.06 115.139 79.4787 114.921 74.0287L114.703 68.07L113.468 70.904ZM114.34 75.7C114.34 79.3333 114.049 79.842 112.378 78.752C111.651 78.316 111.724 77.5167 112.669 75.1187C113.323 73.4473 113.977 72.0667 114.122 72.0667C114.195 72.0667 114.34 73.6653 114.34 75.7ZM104.675 76.8627C106.565 77.444 108.672 78.098 109.253 78.316C110.125 78.6067 109.907 79.1153 108.309 80.4233C106.129 82.3127 105.402 82.24 101.115 79.5513C98.1353 77.7347 97.4813 75.7 99.8066 75.7C100.533 75.7 102.786 76.2087 104.675 76.8627Z" fill="white"/>
<path d="M8.90065 70.8313C6.06665 73.0113 6.72065 76.6446 10.2086 77.5166L12.2433 78.0253L10.0633 79.5513C8.53731 80.6413 6.79331 81.15 4.46798 81.15C2.57865 81.15 0.97998 81.4406 0.97998 81.8766C0.97998 83.0393 13.3333 83.0393 15.6586 81.8766C17.33 81.0773 17.766 81.0773 18.4926 81.9493C19.51 83.1846 22.0533 83.2573 24.524 82.1673C25.9773 81.5133 26.6313 81.5133 27.4306 82.1673C28.8113 83.33 33.3166 82.022 33.9706 80.278C34.4066 79.3333 34.1886 79.3333 32.5173 80.4233C30.9186 81.4406 30.4826 81.5133 29.974 80.714C29.6106 80.1326 29.32 79.2606 29.32 78.752C29.32 78.1706 28.448 78.4613 26.922 79.624C24.2333 81.7313 20.3093 82.7486 19.5826 81.6586C19.3646 81.2953 19.6553 80.7866 20.2366 80.496C20.818 80.278 21.3266 79.7693 21.3266 79.3333C21.3266 78.1706 19.1466 78.4613 18.7106 79.6966C18.42 80.278 17.984 80.5686 17.6206 80.3506C17.1846 80.1326 16.458 80.278 16.022 80.714C15.5133 81.0773 13.624 81.6586 11.88 81.9493L8.60998 82.458L11.0806 79.7693C12.4613 78.316 14.278 77.1533 15.0046 77.1533C16.7486 77.1533 22.344 71.7033 21.69 70.6133C20.818 69.16 19.1466 69.9593 15.6586 73.52C12.4613 76.9353 12.0253 77.1533 10.2086 76.4993C7.88331 75.6273 7.59265 73.084 9.48198 71.6306C10.2086 71.122 10.6446 70.5406 10.4266 70.3953C10.2086 70.1773 9.55465 70.3953 8.90065 70.8313ZM19.946 72.7206C19.1466 74.2466 14.932 76.8626 14.3506 76.2086C14.1326 76.0633 15.368 74.6826 17.0393 73.2293C20.164 70.3953 21.254 70.1773 19.946 72.7206Z" fill="white"/>
<path d="M43.49 71.6306C42.3274 72.43 42.2547 72.866 42.9814 73.738C43.708 74.61 43.49 75.046 41.8914 76.0633C37.822 78.752 36.8047 82.24 39.566 83.6933C41.6007 84.7833 44.7254 83.548 47.196 80.5686C49.2307 78.1706 49.158 76.8626 46.978 76.572C44.798 76.2813 42.3274 79.1153 42.836 81.2953C43.1994 82.7486 42.9814 82.9666 41.3827 82.9666C37.0954 82.9666 38.9847 78.098 44.0714 76.0633C46.9054 74.9006 46.978 74.7553 45.5247 74.174C44.58 73.8106 43.8534 73.2293 43.8534 72.7933C43.8534 71.776 46.978 71.8486 48.068 72.9386C48.722 73.5926 48.94 73.5926 48.94 72.9386C48.94 72.1393 46.6874 70.6133 45.5247 70.6133C45.1614 70.6133 44.2167 71.0493 43.49 71.6306ZM47.4867 78.098C47.4867 78.6793 46.6874 79.842 45.67 80.7866C43.8534 82.458 43.8534 82.458 43.8534 80.932C43.8534 79.406 45.5974 77.1533 46.8327 77.1533C47.196 77.1533 47.4867 77.5893 47.4867 78.098Z" fill="white"/>
<path d="M155.324 73.8107C155.106 74.392 155.179 75.264 155.469 75.7727C155.76 76.354 155.687 76.4267 155.179 76.136C154.67 75.8454 154.307 75.918 154.307 76.354C154.307 76.7174 153.435 77.226 152.345 77.3714L150.31 77.662L152.345 77.8074C154.961 77.88 154.815 79.9874 152.127 81.2954C150.601 82.0947 150.165 82.022 149.511 81.15C148.639 79.9874 145.95 80.06 142.099 81.5134C140.791 82.022 139.192 82.1674 138.465 81.8767C137.303 81.4407 137.303 81.368 138.538 80.714C139.846 79.9147 140.209 78.6067 139.047 78.6067C138.683 78.6067 137.666 79.2607 136.867 80.06C136.067 80.8594 134.614 81.6587 133.597 81.9494C131.126 82.5307 130.472 80.6414 132.071 77.444C133.451 74.5374 133.524 73.52 132.507 73.52C131.562 73.52 129.6 77.88 130.109 78.97C130.254 79.4787 129.891 80.278 129.237 80.7867C128.51 81.368 128.147 81.4407 128.147 80.8594C128.147 80.4234 128.51 80.06 129.019 80.06C129.455 80.06 129.673 79.842 129.455 79.624C129.164 79.406 128.001 79.7694 126.766 80.3507C124.223 81.6587 121.607 81.8767 121.607 80.714C121.607 79.6967 119.499 77.5894 118.918 78.098C118.264 78.8247 119.354 80.932 120.153 80.4234C120.517 80.2054 120.88 80.496 120.88 81.0774C120.88 82.676 121.825 83.0394 124.368 82.3127C125.749 81.8767 126.839 81.9494 127.347 82.458C127.856 82.9667 128.437 82.894 129.309 82.1674C130.254 81.368 130.617 81.368 130.835 82.022C131.199 83.112 133.815 83.2574 135.341 82.3127C135.995 81.8767 136.867 81.9494 137.666 82.458C138.611 83.0394 139.773 83.0394 141.953 82.5307C143.915 81.9494 144.86 81.9494 144.86 82.458C144.86 82.894 145.514 82.6034 146.313 81.8767C147.621 80.714 147.767 80.714 148.857 81.804C150.31 83.2574 151.4 83.2574 153.217 81.9494C154.452 81.0774 154.743 81.0774 155.469 82.1674C156.196 83.112 156.705 83.1847 158.521 82.5307C159.757 82.022 161.137 81.9494 161.646 82.3127C163.245 83.2574 168.913 81.368 167.75 80.2054C167.605 79.9874 166.878 80.278 166.297 80.7867C165.352 81.586 164.989 81.5134 164.189 80.3507C163.608 79.624 163.317 78.752 163.463 78.4614C163.681 78.098 163.463 77.88 163.099 77.88C162.663 77.88 162.3 78.098 162.3 78.3887C162.3 79.1154 157.722 82.24 156.705 82.24C155.324 82.24 155.106 80.278 156.123 76.8627C156.777 74.828 156.85 73.3747 156.414 73.1567C156.051 72.866 155.542 73.2294 155.324 73.8107Z" fill="white"/>
</svg>
